<svg id="icons" xmlns="http://www.w3.org/2000/svg" viewBox="0 0 260 260"><defs><style>.cls-1{fill:#237aba;fill-rule:evenodd}</style></defs><title>1</title><path class="cls-1" d="M129 10a120 120 0 1 0 120 120A120 120 0 0 0 129 10zm10 178.87V210l-20-10v-10.44a81.24 81.24 0 0 1-27.5-7.72l3.34-20.57c9.69 5.78 21.71 10.37 33.24 10.37 10.19 0 17.2-4.93 17.2-14.28 0-8.67-4-12.24-20.71-19.55-22.38-9.35-31.4-16.83-31.4-35 0-16.86 10.37-28 25.83-31.56V50l20 10v10.44a58.31 58.31 0 0 1 21.82 6.69l-3.34 20.4c-8.35-5.61-18.21-9.18-27.23-9.18-11 0-15.87 5.44-15.87 12.58 0 7.48 3.67 11 19.71 17.85 23.72 9.86 32.41 18.19 32.41 36.37 0 18.85-11.18 30.26-27.5 33.72z"/></svg>