<svg id="icons" xmlns="http://www.w3.org/2000/svg" viewBox="0 0 260 260"><defs><style>.cls-1{fill:#237aba}</style></defs><title>1</title><path class="cls-1" d="M138.45 190h.93v-16.87C152 169.93 160 161 160 148.9c0-13-6-19.39-25.49-27.37-13.2-5.43-16.14-7.9-16.14-13.22 0-5.68 4.54-9.05 12.87-9.05a32.47 32.47 0 0 1 18 5.7l1.9 1.31 1.27.87.25-1.42.38-2.13 2-11.32.15-.88.1-.58-.57-.3-.86-.44a43.86 43.86 0 0 0-14.47-4.49v-8.14L123.87 70h-.93v15.89c-13.31 2.59-21.79 11.26-21.79 23.27 0 12.23 5.93 18.23 25.36 26.17 13.42 5.46 16.27 8 16.27 14.42s-5.3 10.5-14.08 10.5a45.86 45.86 0 0 1-22.91-6.75l-1.88-1.12-1.25-.74-.22 1.34-.33 2-1.87 11.56-.15.9-.1.6.59.28.89.43a61.32 61.32 0 0 0 21.46 5.46v8.36zM50 70a100 100 0 0 1 174.24 26.5l29.83-5.42A130 130 0 0 0 28.63 48.63L10 30 0 100l70-10zm140 100l20 20a100 100 0 0 1-174.24-26.5l-29.83 5.42a130 130 0 0 0 225.44 42.45L250 230l10-70z"/></svg>