<svg id="icons" xmlns="http://www.w3.org/2000/svg" viewBox="0 0 260 260"><defs><style>.cls-1{fill:#237aba;fill-rule:evenodd}</style></defs><title>1</title><path class="cls-1" d="M107.36 144.22l-28.55.04 37.98-37.98 14.26 14.25-23.69 23.69z"/><path class="cls-1" d="M110.89 120.97V70.56l20.16-20.16v70.57M195 130a65 65 0 1 0 65 65 65 65 0 0 0-65-65zm7 96.06V238h-.77L191 232.66v-5.85a34 34 0 0 1-13.28-3.81l-.45-.3-.32-.2.09-.42.11-.63 1.19-8.09.21-1.4.14-.94.79.52 1.18.78a26.79 26.79 0 0 0 14.43 4.68c5.52 0 8.86-2.79 8.86-7.35s-1.79-6.27-10.24-10.09c-12.23-5.55-16.2-9.75-16.2-18.31 0-8.4 5.49-14.47 13.49-16.28V154h1.05l9.95 5.11v5.7a21.37 21.37 0 0 1 9 3.14l.49.31.34.21-.08.41-.1.61-1.27 7.92-.24 1.49-.16 1-.8-.61-1.2-.92a19.06 19.06 0 0 0-11.31-4c-5.24 0-8.1 2.36-8.1 6.33 0 3.72 1.85 5.45 10.16 9.25 12.26 5.58 16.14 10 16.14 19.15.02 8.49-4.87 14.73-12.87 16.96z"/><path class="cls-1" d="M113.2 218.1a98.33 98.33 0 1 1 104.9-104.9 84.53 84.53 0 0 1 21.9 9.68V120a120 120 0 1 0-120 120h2.88a84.53 84.53 0 0 1-9.68-21.9z"/></svg>