<svg id="icons" xmlns="http://www.w3.org/2000/svg" viewBox="0 0 260 260"><defs><style>.cls-1{fill:#237aba}</style></defs><title>1</title><path class="cls-1" d="M60 129a69.65 69.65 0 0 1 11.53-38.47L35.74 54.74a120 120 0 0 0 0 148.53l35.79-35.79A69.65 69.65 0 0 1 60 129zm164.26-74.26l-35.79 35.79a70 70 0 0 1 0 76.94l35.79 35.79a120 120 0 0 0 0-148.53zM130 59a69.65 69.65 0 0 1 38.47 11.53l35.79-35.79a120 120 0 0 0-148.53 0l35.8 35.79A69.65 69.65 0 0 1 130 59zm0 140a69.65 69.65 0 0 1-38.47-11.53l-35.79 35.79a120 120 0 0 0 148.53 0l-35.79-35.79A69.65 69.65 0 0 1 130 199z"/></svg>